<?xml version="1.0" encoding="UTF-8"?>
<svg width="32" height="32" viewBox="0 0 32 32" fill="none" xmlns="http://www.w3.org/2000/svg">
  <rect width="32" height="32" rx="8" fill="#1A1A1A"/>
  <path d="M16 8C11.5817 8 8 11.5817 8 16C8 20.4183 11.5817 24 16 24C20.4183 24 24 20.4183 24 16C24 11.5817 20.4183 8 16 8Z" fill="#FF3B30"/>
  <path d="M16 10C12.6863 10 10 12.6863 10 16C10 19.3137 12.6863 22 16 22C19.3137 22 22 19.3137 22 16C22 12.6863 19.3137 10 16 10Z" fill="#FF3B30"/>
  <path d="M16 12C13.7909 12 12 13.7909 12 16C12 18.2091 13.7909 20 16 20C18.2091 20 20 18.2091 20 16C20 13.7909 18.2091 12 16 12Z" fill="#FF3B30"/>
  <path d="M16 14C14.8954 14 14 14.8954 14 16C14 17.1046 14.8954 18 16 18C17.1046 18 18 17.1046 18 16C18 14.8954 17.1046 14 16 14Z" fill="#FF3B30"/>
</svg> 